<?xml version="1.0" encoding="utf-8"?>
<!-- Generator: Adobe Illustrator 27.6.0, SVG Export Plug-In . SVG Version: 6.00 Build 0)  -->
<svg version="1.1" xmlns="http://www.w3.org/2000/svg" xmlns:xlink="http://www.w3.org/1999/xlink" x="0px" y="0px"
	 viewBox="0 0 700 700" style="enable-background:new 0 0 700 700;" xml:space="preserve">
<style type="text/css">
	.st0{fill:none;stroke:#36489E;stroke-width:28;stroke-miterlimit:10;}
	.st1{fill:#36489E;}
</style>
<g id="Layer_1">
	<g>
		<path d="M332.81,322.91c3.31-6.69,0.8-18.95,0.8-26.36c0-11.62,0.01-23.25,0.01-34.87c0-20.92,0.01-41.85,0.02-62.77
			c0.01-10.85,0.01-21.7,0.02-32.55c0-3.77,0.98-9.04-0.02-12.66c-1.3-4.68-1.49-2.99-5.45-4.72c-14.26-6.23-28.89-17.89-35.9-32.62
			c-13.71-28.78,19.46-62.26,48.36-59.67c7.44,0.66,13.84,4.44,21.13,5.47c8.72,1.23,15.61,2.93,22.33,9.04
			c11.97,10.87,15.56,28.3,7.92,42.7c-4.83,9.1-13.27,15.25-20.65,22.14c-3.26,3.03-6.45,6.34-10.17,8.81
			c-2.97,1.97-7.96,2.64-9.94,5.66c-3.77,5.75-0.49,23.77-0.48,30.71c0.01,10.73,0.02,21.45,0.02,32.18
			c8.68-7.64,17.19-15.42,25.7-23.24c3.4-3.13,9.05-6.42,11.09-10.58c2.27-4.65,0.14-10.56,0.66-15.6
			c2.14-20.83,26.05-35.58,40.19-48.61c15.06-13.88,35.97-24.02,54.47-8.63c16.52,13.74,12.66,37.31-0.99,51.16
			c-7.07,7.17-14.51,14.15-21.97,20.92c-8.56,7.77-16.16,17.13-27.57,20.62c-11.71,3.58-20.37,1.28-30.93-3.87
			c-5.8-2.83-5.27-2.69-10.62,1.96c-5.1,4.44-10.1,9.03-15.08,13.6c-6.76,6.23-18.43,14.02-22.9,22.15
			c-2.09,3.81-4.55,15.37,0.43,18.42c5.16,3.16,20.25-2.28,25.95-2.73c6.99-0.55,30.03-4.9,34.6,2.76
			c8.16,13.69-19.43,11.29-24.44,11.42c-7.61,0.19-33.67-0.66-38.23,6.69c-2.53,4.07-0.43,15.81-0.42,20.56
			c0.01,8.32,0.02,16.63,0.03,24.95c0.01,13.91-2.65,31.05,0.35,44.61c8.11-4,15.67-13.35,22.22-19.48
			c8.24-7.71,13.95-13.03,24.26-16.5c5.65-1.9,4.77-3.05,8.52-8.32c2.2-3.1,4.95-5.83,8.19-7.84c8.57-5.3,18.14-3.97,27.67-5.11
			c11.51-1.37,15.76-0.84,25.4,5.04c8.71,5.31,18.53-6.13,29.37-4.36c7.1,1.16,21.18,8.83,14.98,17.43
			c-3.25,4.51-7.12,4.1-11.32,2.28c-5.62-2.44-5.87-5.08-12.79-3.29c-8.81,2.28-15.83,9.56-25.12,4.56
			c-3.45-1.86-5.73-7.12-9.2-8.29c-4.52-1.53-14.24,2.47-19.44,2.67c-6.98,0.27-20,2.63-16.07,12.87c4.2,10.96,17.07,7.24,25.6,9.21
			c6.84,1.58,7.54,3.53,13.94,0c4.37-2.41,7.34-6.34,12.6-7.13c11.11-1.66,18.12,9.46,28.67,3.78c9.52-5.13,18.99,1.85,10.72,11.24
			c-5.37,6.1-14.8,7.65-22.43,5.97c-9.27-2.03-12.11-5.81-21.04-0.54c-11.88,7.02-17.28,2.57-29.7,0.94
			c-10.08-1.32-17.18,0.35-25.12-7.29c-2.63-2.53-5.43-8.49-9.47-9.13c-4.96-0.79-10.74,6.48-13.95,9.3
			c-9.54,8.39-18.79,17.08-28.1,25.73c-3.68,3.41-7.59,5.98-8.78,10.97c-1.64,6.83,0.05,16.14,0.07,23.2
			c0.01,5.82-3.37,27.51,1.55,31.45c2.62,2.1,31.51,2.11,34.21,0.02c2.92-2.25,1.94-8.98,2.86-12.33c1.28-4.69,3.59-8.86,6.75-12.55
			c3.27-3.82,6.72-5.28,10.72-7.97c3.7-2.49,6.16-6.81,10.12-8.74c10.7-5.2,14.61,4.5,8.75,12.28
			c-5.81,7.73-16.95,10.46-20.27,19.65c-7.22,20,19.93,26.07,33.91,18.88c5.15-2.65,14.01-12.68,17.83-1.95
			c3.55,9.98-11.4,16.08-18.41,18.24c-22.12,6.82-36.67-9.85-57.48-9.8c-5.92,0.01-25.45-3.3-29.67,0.96
			c-2.54,2.56-0.94,11.79-0.93,14.81c0.01,6.73,0.02,13.46,0.03,20.19c0.01,13.46,0,26.92,0.01,40.37c0,2.37-1.69,10.77,0.93,11.82
			c2.26,0.91,11.75-10.19,12.85-11.23c9.35-8.78,14.3-15.1,27.46-15.2c5.89-0.04,11.78-0.05,17.68-0.05c5.42,0,15.1,2.08,20.06-0.11
			c6.28-2.76,7.99-13.44,13.61-18.12c8.57-7.14,18.54-6.38,29.11-6.37c12.6,0.01,25.2-0.05,37.8-0.01
			c10.3,0.03,23.19-2.05,32.71,2.8c14.22,7.24,19.65,26.58,12.05,40.34c-11.46,20.75-36.73,15.23-56.4,15.13
			c-12.26-0.06-24.84,1.3-37.06,0.57c-4.78-0.28-9.53-1.13-13.82-3.34c-6.37-3.27-7.81-8.93-12.84-13.1
			c-6.75-5.59-22.61-2.41-31.09-2.42c-5,0-11.82-1.23-16.55,0.6c-5.76,2.22-10.52,8.48-14.89,12.58
			c-6.45,6.05-19.39,14.24-21.52,22.98c-2.9,11.9-0.1,28.23-0.1,40.48c0,13.1-0.01,26.2-0.05,39.31c-0.01,3.76-1.67,10.28,1.6,12.95
			c2.88,2.35,13.85,0.42,17.57,0.42c25.94-0.01,51.89-0.01,77.83,0c12.97,0,25.94,0.01,38.92,0.02c7.06,0,26.46-2.87,23.9,9.67
			c-2.15,10.54-19.53,7.1-27.12,7.11c-14.02,0.01-28.04,0.01-42.07,0.02c-26.49,0.01-52.97,0.02-79.46,0.03
			c-54.53,0.02-109.06,0.04-163.59,0.05c-7.18,0-21.38,2.89-24.18-6.32c-3.95-12.98,15.22-10.57,22.21-10.57
			c27.19,0,54.38,0,81.57,0c13.21,0,26.41,0,39.62,0c8.81,0,15.18,2.83,16.11-6.56c2.49-25.16,0.19-52.14,0.11-77.45
			c-0.04-11.96-5.12-16.32-13.48-24.41c-7.18-6.95-15.27-19.09-25.52-20.92c-8.54-1.52-22.97,3.87-30.35-1.67
			c-2.87-2.15-4.46-7.11-2.36-10.29c3.23-4.88,13.33-3.37,18.32-3.46c10.64-0.2,22.56-2.43,30.58,4.9
			c2.69,2.45,19.85,22.13,21.85,21.21c2.94-1.36,0.86-19.96,0.86-23.03c0-10.71,0-21.42,0-32.13c0-19.89,0-39.78,0-59.66
			c0-9.18,0-18.36,0-27.54c0-4.57,2.61-19.81-0.79-23.12c-3.27-3.18-18.35-0.3-22.46-0.28c-8.15,0.04-18.25-1.74-25.87,1.15
			c-6.95,2.63-11.54,5.54-19.48,5.77c-10.79,0.32-21.63,0.01-32.42,0.01c-9.26,0-18.53,0-27.79,0c-7.4,0-16.35,1.37-22.76-3.24
			c-1.87-1.35-6.32-5.41-6.01-8.06c0.41-3.47,1.46-2.3,5.07-2.86c9.14-1.4,19.71,0.1,28.98,0.13c8.92,0.03,17.83,0.05,26.75,0.07
			c8.98,0.02,22.64,2.63,31.21,0.07c5.9-1.77,5.35-4.75-0.22-6.27c-9.31-2.55-22.93,0-32.56,0.01c-9.3,0.01-18.61,0.01-27.91,0.02
			c-7.65,0.01-19.26,2.31-26.53,0.04c-3.33-1.04-5.27,1-4.87-4.33c0.21-2.85,3.85-5.58,6.01-6.95c6.89-4.4,15.58-3.25,23.34-3.25
			c20.14-0.01,40.42-0.71,60.55,0.06c6.9,0.26,12.39,1.23,17.54,6.14c2.29,2.18,3.22,4.68,6.14,5.92
			c4.06,1.73,12.19,0.23,16.41,0.23c5.6,0,20.3,2.75,24.97-0.13c4.57-2.83,3.56-11.81,0.94-16.43c-3.69-6.5-11.12-11.66-16.19-17
			c-6.22-6.56-12.78-12.72-19.07-19.21c-9-9.27-18.01-23.29-31.58-23.75c-9.72-0.34-19.54,0.11-29.27,0.08
			c-8.18-0.02-22.88,2.9-30.3-0.45c-4.94-2.23-6.71-9.41-2.48-13.54c4.99-4.88,20.27-2.15,26.65-2.15
			c17.65-0.01,43.86-5.97,57.25,7.38C302.28,291.84,317.02,307.95,332.81,322.91z M380.6,99.08c-0.92-21.41-19.6-19.12-34.52-25.51
			c-15.49-6.64-41.26,10.33-41.76,27.54c-0.29,10.02,7.58,15.05,13.61,21.7c6.27,6.91,11.99,13.13,22.25,13.08
			c9.9-0.05,16.69-7.41,23.44-13.63C369.89,116.48,381.95,109.06,380.6,99.08z M461.02,114.7c-9.92-1.34-16.91,6.93-23.42,13.07
			c-7.67,7.23-15.43,14.36-23.12,21.58c-5.71,5.37-10.69,10.26-11.12,18.5c-0.48,9.24,5.83,17.12,15.16,18.33
			c17.71,2.31,35.46-23.66,47.38-34.24c6.97-6.19,15.41-13.64,12.85-24.11C476.82,119.94,469.35,113.25,461.02,114.7z
			 M495.33,534.91c13.15,0,54.41,7.36,47.06-17.93c-2.44-8.41-9.94-8.93-17.66-9.03c-11.67-0.14-23.38,0.52-35.06,0.42
			c-13.17-0.12-43.96-6.62-41.33,15.23c0.99,8.25,5.42,10.54,13.11,11.32C472.5,536.02,484.22,534.92,495.33,534.91z"/>
		<path d="M229.61,448.81c8.22-1.79,15.31-2.04,23.47-0.11c10.19,2.42,10.83-4.48,18.98-9.74c4.84-3.12,13.57-3.89,12.69,4.54
			c-0.85,8.13-13.99,10.62-15.51,18.14c-1.99,9.86,6.87,8.2,12.63,8.45c6.35,0.28,16.33,5.24,5.96,9.29
			c-4.09,1.6-9.21-1.23-12.87,0.03c-4.26,1.47-2.93,2.2-4.58,6.78c-2.71,7.54-8.7,12.49-14.23,18
			c-14.46,14.39-28.85,29.79-44.8,42.55c-6.25,5-12.95,6.68-21.04,6.14c-8.29-0.54-11.51-4.74-18.82,1.09
			c-4.23,3.37-11.49,13.02-17.45,5.55c-5.66-7.1,6.75-12.7,10.14-17.16c2.55-3.35,4.41-10.23-0.27-13.2
			c-3.3-2.09-18.84,4.27-16.43-5.44c1.16-4.69,6.88-3.4,10.42-3.52c5.63-0.18,5.03,0.45,7.4-4.63c4.22-9.06,7.07-14.84,14.61-21.97
			c15.44-14.62,30.68-33.58,49.13-44.39C229.21,449.07,229.4,448.93,229.61,448.81z M222.29,515.15
			c-1.71-3.5-20.2-24.99-22.42-18.45c-1.21,3.57,9.26,12.12,11.46,14.45C212.85,512.76,221.94,522.71,222.29,515.15z M223.25,474.67
			c-8.13,1.39,11.58,21.51,14.99,21.71C247.96,496.94,227.89,475.21,223.25,474.67z M200.23,532.96c-1.48-3-19.4-23.05-19.92-13.91
			C180.05,523.41,199.82,540.48,200.23,532.96z M236.05,464.49c-7.23,3.09,12.28,21.88,15.39,18.46
			C255.18,478.82,239.58,465.71,236.05,464.49z"/>
		<path d="M499.69,211.34c6.72-12.43,19.75-18.82,33.58-15.91c8.37,1.76,9.91,2.9,17.17-1.6c6.18-3.83,14.53-4.44,21.69-2.47
			c26.73,7.37,20.52,47.38-5.46,50.88c-6.52,0.88-10.56-2.34-16.33-3.25c-6.23-0.98-12.37,5.11-19.74,5.51
			c-8.13,0.44-13.62-2.31-20.9-4.13c-4.8-1.21-3.7-0.85-8.08,2.04c-4.4,2.9-9.59,3.6-13.96,6.14c-5.41,3.14-6.98,10.05-12.37,13.91
			c-5.48,3.93-12.7,6.07-19.43,5.12c-12.95-1.83-23.3-14.62-22.36-27.62c1.36-18.84,16.88-24.85,33.19-23.67
			c8.73,0.63,11.44-7.9,18.8-12.47c7.92-4.92,17.37-3.61,14.2,7.55c-4.44,3.2-25.94,15.9-14.77,22.73
			c3.16,1.93,11.53-3.81,13.42-6.58C501.03,223.54,499.58,215.9,499.69,211.34z M539.6,220.75c-0.06-14.79-25.32-15.68-25.53-1.26
			C513.89,232.92,539.66,235.51,539.6,220.75z M563.66,227.84c15.19-0.14,14.83-22.94,0.02-22.87
			C549.14,205.04,548.95,227.98,563.66,227.84z M448.88,241.47c0.01,13.15,19.31,15,22.24,2.67
			C474.77,228.73,448.86,224.47,448.88,241.47z"/>
		<path d="M117.68,382.33c0-3.24-1.02-17.51,6.87-13.02c4.02,2.28,2.62,13.26,2.48,16.58c-0.18,4.45-1.24,10.1,5.55,9.48
			c5.46-0.49,6.84-7.76,10.02-11.46c3.89-4.53,9.35-5.28,9.17,1.73c-0.13,5.28-8.6,9.65-8.37,14.31c0.16,3.2,5.41,6.19,7.84,6.3
			c4.27,0.19,15.15-11.96,17.19-2.64c1.76,8-23.92,10.88-11.4,16.68c4.99,2.31,15.48-3.34,19.89,0.87c4.73,4.52,0.03,7.66-4.48,8.73
			c-4.41,1.05-13.47-2.32-17.04,0.74c-5.12,4.39,1.32,7.22,4.83,8.75c3.13,1.36,11.14,3.67,7.91,9.07
			c-4.04,6.75-14.3-4.84-18.94-3.1c-14.04,5.26,7.58,17.87,1.96,24.58c-6.89,8.21-19.18-26.16-24.47-7.48
			c-1.22,4.3,3.33,17.17-1.88,20.16c-4.75,2.72-6.3-1.42-7.15-5.06c-1.13-4.8,2.43-14.12-0.44-18.2c-3.76-5.33-8.77-0.77-11.22,2.67
			c-1.77,2.48-5.72,9.94-9.42,9.97c-9.33,0.07-0.57-11.62,0.93-14.23c2.69-4.7,4.78-6.91-0.11-10.9c-5.02-4.1-6.42,0.21-12.22,2.03
			c-4.55,1.42-11.61,1.03-8.3-5.59c2.19-4.38,10.4-3.17,12.99-6.86c7.48-10.66-21.87-3.3-24.49-9.73
			c-5.29-12.95,29.46-0.14,25.01-11.19c-1.9-4.71-14.23-4.23-14.46-10.5c-0.39-10.61,12.54-0.22,15.38,0.35
			c22.26,4.5-8.11-23.83,4.97-25.48c6.76-0.85,8.22,12.59,12.74,14.97c8.85,4.66,8.58-7.75,8.58-12.55
			C117.61,382.33,117.64,382.33,117.68,382.33z M121.75,434.61c11.41,0.56,12.76-15.51,2.03-17.5
			C112.95,415.11,110.17,434.04,121.75,434.61z"/>
		<path d="M516.13,331.73c-1.02-8.61,3.82-16.44,10.95-20.94c7.38-4.66,18.22-1.68,24.1-7.59c2.95-2.96,4.1-7.46,7-10.6
			c3.66-3.95,8.11-4.54,12.11-7.71c6.54-5.17,7.12-12.68,16.03-15.6c5.37-1.76,5.48-1.08,9.1-4.78c2.59-2.65,4.57-7.01,9.31-4.62
			c9.09,4.58,0.66,17.07-5.31,20.03c-3.29,1.63-7.27,1.66-10.25,4.01c-3.29,2.58-3.59,6.05-6.01,9.14
			c-2.47,3.15-6.09,3.87-9.35,5.78c-4.88,2.87-6.53,6.04-9.47,10.76c-5.62,9.04-11.66,10.45-21.61,11.45
			c-8.06,0.8-17.74,8.82-9.65,17.04c6.75,6.85,15.86,2.32,20.04-4.29c5.28-8.35,10.15-15.86,19.28-20.69
			c3.47-1.83,7.95-2.45,10.91-5.03c3.12-2.71,4.52-7.44,7.12-10.68c7.98-9.95,17.44-9.58,28.95-7.18
			c5.42,1.13,14.12,6.57,6.55,12.72c-7.99,6.49-17.27-5.52-25.08,4.32c-3.29,4.14-5.14,8.64-9.53,11.97
			c-3.96,3-8.67,4.07-12.88,6.54c-9.72,5.69-11.12,16.5-18.96,23.66C543.7,363.86,516.14,353.76,516.13,331.73z"/>
		<path d="M133.75,313.46c-13.1,5.42-24.09,1.96-33.49-8.2c-1.35,6.22-18.03,20.9-21.52,10.07c-2.97-9.22,13.78-13.82,19.61-13.73
			c-0.83-2.6-1.66-5.18-2.53-7.87c-4.5,4-26.9,12.89-28.26,0.58c-1.15-10.42,22.91-8.11,27.48-5.13c2.2-11.28,5.5-20.92,16.98-25.6
			c10-4.08,16.25-0.78,25.32,2.62c5.53,2.07,2.51,1.26,6.23-3.5c2.22-2.84,7.91-6.06,11.76-4.98c4.51,1.27,5.22,4.61,2.57,8.89
			c-3.19,5.15-10.05,5.28-15.16,3.41c2.36,3.95,4.6,7.58,6.06,11.58l0.09,0.12c0.36,2.03,0.72,4.06,1.09,6.12
			c5.09-1.69,30.69-2.42,25.11,8.47c-4.14,8.08-21.38,2.61-25.89-1.79c-0.99,2.53-1.93,4.93-2.95,7.52
			c6.77-2.11,26.8,9.32,17.67,16.05c-6.4,4.71-18.98-6.61-20.68-12.08c-2.26,2.84-4.6,5.31-7.82,6.63
			C134.86,312.91,134.31,313.18,133.75,313.46z M126.93,288.18c-0.65-5.61-9-5.1-9.36,0.34
			C117.12,295.05,126.73,294.85,126.93,288.18z"/>
		<path d="M206.68,164.54c8.52,7.78-1.92,14.35-7.26,20.13c-6.07,6.59-10.01,14.07-7.16,23.19c6.11,19.62,28,21.16,41.4,8.62
			c6.8-6.37,9.56-15.49,16.23-21.76c7.04-6.61,14.66-10.53,19.16-19.49c1.17-2.33,0.65-5.15,3.48-6.24
			c0.29-0.11,11.8-0.13,11.79-0.13c6.25,3.31-5.2,19.5-7.68,22.53c-6.59,8.06-15.16,13.63-21.24,22.22
			c-4.65,6.56-8.62,12.94-15.13,17.9c-13.41,10.22-32.66,11.45-46.91,2.16c-11.98-7.81-19.44-22.25-17.56-36.6
			c1.27-9.69,6.31-16.84,12.79-23.73c5.59-5.94,8.89-12.88,17.98-8.89L206.68,164.54z"/>
		<path d="M449.32,423.78c7.72,0,13.3,1.26,20.46,2.49c4.75,0.81,2.74,2.08,6.48-2.44c1.99-2.4,3.33-5.43,3.31-8.57
			c-0.11-19.52-22.05-6.1-31.23-4.81c-5.72,0.8-14.94,2.66-16.97-3.58c-1.14-3.51,0.68-8.93,3.8-10.61
			c4.05-2.18,10.76,0.04,15.46-1.72c7.84-2.94,13.1-7.13,22.17-5.97c31.18,3.96,26.32,52.01-0.85,59.15
			c-9.47,2.49-8.88-4.33-16.08-7.69c-6.16-2.88-13.6,0.81-20-0.34c-5.01-0.9-10.24-4.94-7.89-10.83c3.02-7.55,15.14-4.68,21.32-4.68
			C449.32,424.03,449.32,423.9,449.32,423.78z"/>
		<path d="M254.33,129.76c7.77-0.77,26.85,6.98,21.24,15.64c-6.67,10.3-16.05-1.14-24.33-1.04c-6.05,0.08-22.78,10.15-23.19-3.42
			C227.72,129.85,247.37,129.96,254.33,129.76z"/>
		<path d="M559.71,415.81c-17.9,1.17-16.87-27.27,0.34-27.11C577.59,388.86,577.9,415.7,559.71,415.81z"/>
		<path d="M542.66,466.84c-16.82,1.01-16.91-24.66-0.74-25.92C559.49,439.56,560.97,467,542.66,466.84z"/>
		<path d="M593.76,442.07c0,18.66-29.68,16.17-26.09-2.71C570.47,424.63,593.76,426.83,593.76,442.07z"/>
		<path d="M589.05,412.79c-0.03-17.57,28.03-16.69,26.22,0.88C613.7,428.96,589.08,428.9,589.05,412.79z"/>
		<path d="M606.35,389.84c-15.11-0.17-12.74-23.66,2.35-21.35C622.31,370.57,619.94,389.99,606.35,389.84z"/>
		<path d="M244.59,401.78c0.01,14.24-21.37,14.92-21.44,0.28C223.07,387.83,244.59,387.84,244.59,401.78z"/>
		<path d="M576.12,362.48c13.47,0,13.57,19.11,0.76,20.38C562.5,384.28,561.59,362.48,576.12,362.48z"/>
		<path d="M232.52,344.65c-13.17-0.11-12.33-21.33,0.77-20.99C247.11,324.01,246.31,344.76,232.52,344.65z"/>
		<path d="M277.94,165.68c-5.04,0.3-8.88-4.25-7.46-9.1c1.52-5.16,11.01-9.98,16.06-10.44c5.06-0.45,10.32,3.5,8.32,9.24
			C293.17,160.28,282.53,165.28,277.94,165.68z"/>
		<path d="M260.77,400.24c0.07-12.63,18.33-13.73,20.26-1.43C283.13,412.13,260.69,414.29,260.77,400.24z"/>
		<path d="M209.77,187.59c0.38-13.5,27.81,9.61,24.9,16.73C230.13,215.45,209.92,193.35,209.77,187.59z"/>
		<path d="M284.84,322.71c-0.06,11.07-16.6,12.66-18.61,1.64C263.87,311.39,284.91,309.35,284.84,322.71z"/>
		<path d="M531.02,431.72c-13.49,0.01-9.74-21.84,3.48-18.05C545.13,416.72,541.77,431.71,531.02,431.72z"/>
		<path d="M132.67,257.86c0.06-7.68,15.59-24.84,18.1-11.89C152.63,255.65,132.56,272.88,132.67,257.86z"/>
		<path d="M116.01,248.63c-0.16-4.12-0.46-14.15,5.86-14.16c6.38-0.01,6.85,12.13,6.63,16.34c-0.27,5.11-1.25,10.35-7.53,9.43
			C114.6,259.3,116.01,254.28,116.01,248.63z"/>
		<path d="M133.75,313.46c0.56-0.27,1.11-0.55,1.67-0.82c7.81-1.08,21.44,16.49,13.54,22.42
			C139.65,342.05,131.69,319.68,133.75,313.46z"/>
		<path d="M115.92,329.39c0-4.62-1.06-11.55,5.14-12.45c6.26-0.91,6.98,5.27,7.22,10c0.2,3.87-0.29,15.34-5.43,16.7
			C116.44,345.33,115.76,332.75,115.92,329.39z"/>
		<path d="M495.79,491.09c-11.35-0.03-11.54-18.67,0.21-18.68C508.37,472.4,507.81,491.12,495.79,491.09z"/>
		<path d="M111.4,258.33c0.45,5.3-5.04,6.14-8.56,4.34c-4.37-2.24-9.04-10.62-9.06-15.4C93.7,233.09,111.37,249.54,111.4,258.33z"/>
		<path d="M216.21,218.15c-4.79-1.73-24.02-18.3-13.59-22.53C209.02,193.02,230.98,216.01,216.21,218.15z"/>
		<path d="M558.86,471.46c0.01-12.71,19.79-10.56,17.84,1.56C574.94,483.93,558.84,482.87,558.86,471.46z"/>
		<path d="M97.84,335.37c-9.32,0.61-0.34-22.98,8.65-22.27C118.49,314.04,105.49,334.48,97.84,335.37z"/>
		<path d="M456.71,560.92c0.05-13.41,19.38-10.91,17.13,1.66C471.98,572.89,456.66,572.09,456.71,560.92z"/>
		<path d="M495.47,569.76c-12.43-0.1-9.9-19.9,1.94-17.87C508.28,553.76,506.73,569.85,495.47,569.76z"/>
		<path d="M526.39,569.76c-12.55-0.04-10.28-20.08,1.91-17.96C538.42,553.56,537.1,569.79,526.39,569.76z"/>
		<path d="M87.23,285.26c-11.33-0.51-21.65-18.32-4.46-14.96C91.86,272.09,102.86,285.28,87.23,285.26z"/>
		<path d="M148.81,281.58c-1.59-9.53,20.31-17.44,22.6-8.48c1.96,7.68-18.54,17.82-22.51,8.6
			C148.89,281.71,148.81,281.58,148.81,281.58z"/>
		<path d="M237.14,165.2c0.76-14.18,29.32,9.88,17.3,15.5C248.54,183.47,237.13,170.8,237.14,165.2z"/>
		<path d="M465.45,473.32c12.63-0.14,9.3,19.35-1.82,17.32C453.57,488.81,454.93,473.45,465.45,473.32z"/>
		<path d="M218.7,130.73c10.33,0.07,11.19,14.58,1.29,16.19C208.68,148.77,205.82,130.65,218.7,130.73z"/>
		<path d="M206.56,164.44c-4.99-6.68-3.37-20.96,8.21-15.4c3.92,1.88,5.59,7.58,3.69,11.63c-2.33,4.95-7.03,4.75-11.78,3.87
			C206.68,164.54,206.56,164.44,206.56,164.44z"/>
		<path d="M527.33,473.81c10.22-0.11,10.32,15.48,1.04,16.76C517.68,492.06,514.97,473.94,527.33,473.81z"/>
		<path d="M231.08,165.58c-10.33,0.09-10.47-16.23-0.6-16.83C240.63,148.13,241.76,165.49,231.08,165.58z"/>
		<path d="M96.06,271.94c-7.56-0.23-19.15-13.71-6.99-14.35C97.26,257.16,107.48,272.28,96.06,271.94z"/>
		<path d="M555.49,422.76c10.13,0.04,9.39,14.37-0.11,14.74C545.86,437.87,545.33,422.73,555.49,422.76z"/>
		<path d="M244.14,437.37c-0.25-3.39-0.51-9.77,2.7-12.14c5.03-3.71,7,1,7.43,5.32c0.31,3.17-0.49,12.21-3.51,13.88
			C245.66,447.23,244.14,440.97,244.14,437.37z"/>
		<path d="M229.03,449.22c-6.89,1.55-11.3-12.42-7.62-16.75c7.42-8.75,10.79,11.55,8.2,16.34
			C229.4,448.93,229.21,449.07,229.03,449.22z"/>
		<path d="M163.83,506.22c-9.74-0.02-19.36-11.6-4.81-10.59c2.83,0.2,8.13,1.34,9.33,4.36C169.45,502.79,167.4,507.15,163.83,506.22
			z"/>
		<path d="M210.9,338.7c0.25,7.72-10.65,8.79-12.19,1.37C196.96,331.67,210.6,329.39,210.9,338.7z"/>
		<path d="M261.27,159.44c-0.44,7.92-11.22,2.68-11.87-2.66C248.25,147.15,261.37,151.5,261.27,159.44z"/>
		<path d="M234.94,188.8c1.45-7.09,10.21-6.62,11.06,0.65C247.07,198.63,234.72,197.17,234.94,188.8z"/>
		<path d="M230.4,175.58c-1.16,8.03-13.04,4.06-11.37-3.22C220.77,164.81,230.57,168.96,230.4,175.58z"/>
		<path d="M193.77,475.17c-7.07-0.21-10.36-12.05-1.85-12.16C198.15,462.92,201.27,474.67,193.77,475.17z"/>
		<path d="M172.08,482.55c0.05-7.49,11.34-3.81,11.25,2.36C183.21,493.35,172.27,489.93,172.08,482.55z"/>
		<path d="M205.42,447.18c5.66,0.16,10.6,10.7,4.17,13.15C202.61,462.99,196.94,446.94,205.42,447.18z"/>
		<path d="M199.5,393.36c0.07-7.33,9.95-7.34,11.15-0.6C212.18,401.36,199.42,401.71,199.5,393.36z"/>
		<path d="M334.74,127.9c-3.99,0.12-6.59-3.27-6.75-7.01c-0.23-5.28,4.21-7.7,7.93-10.71c6.32-5.1,17.69-20.56,26.01-21.06
			c12.61-0.76,6.89,12.82,1.62,17.45C357.86,111.57,342.52,129.25,334.74,127.9z"/>
		<path d="M338.36,79.74c9.46-1.1,7.52,8.86,3.84,13.26c-3.9,4.65-12.99,14.79-19.62,15.16c-11.23,0.64-7.16-10.34-2.22-15.21
			C324.39,88.97,332.21,78.95,338.36,79.74z"/>
		<path d="M414,169.13c-1.18-6.28,17.71-20.95,22.6-24.14c7.37-4.8,15.69-0.79,11.63,8.58C445.6,159.65,413.87,189,414,169.13z"/>
		<path d="M463.27,145.36c-7.61,0.31-22.58-19.46-9.88-21.2C460.83,123.14,476.31,143.88,463.27,145.36z"/>
		<path d="M491.83,527.87c-13.76,0-13.95-13.03,0.39-13.1c4.89-0.02,11.79-0.18,11.92,6.44
			C504.29,528.35,496.8,527.87,491.83,527.87z"/>
		<path d="M524.27,527.85c-14.07,0-14.44-13.09,0.2-13.08c4.98,0.01,11.14-0.22,11.44,6.26c0.33,7.15-6.57,6.77-11.64,6.77
			C524.27,527.82,524.27,527.83,524.27,527.85z"/>
		<path d="M462.82,528.44c-9.07-0.21-9.01-14.59,0.15-14.29C472.56,514.45,472.4,528.66,462.82,528.44z"/>
	</g>
</g>
<g id="Layer_2">
	<g>
		<g>
			<path class="st0" d="M143.47,581.02C78.82,523.86,38.05,440.3,38.05,347.22C38.05,174.93,177.71,35.26,350,35.26
				s311.95,139.67,311.95,311.95c0,66.68-20.92,128.48-56.56,179.18c-1.42,2.03-2.87,4.04-4.34,6.03"/>
			<g>
				<path class="st1" d="M556.53,581.02c12.17-30.76,23.28-72.5,23.75-104.14l26.08,48.68l51.18,20.73
					C626.12,550.13,585.81,565.63,556.53,581.02z"/>
			</g>
		</g>
	</g>
</g>
</svg>
