<?xml version="1.0" encoding="UTF-8"?>
<svg xmlns="http://www.w3.org/2000/svg" viewBox="0 0 658.91 664.47">
  <defs>
    <style>
      .cls-1 {
        fill: #36489e;
      }

      .cls-1, .cls-2 {
        stroke: #fff;
        stroke-miterlimit: 10;
        stroke-width: 7px;
      }
    </style>
  </defs>
  <g id="Layer_1" data-name="Layer 1">
    <g>
      <path class="cls-2" d="m312.27,305.15c3.31-6.69.8-18.95.8-26.36,0-11.62,0-23.25,0-34.87,0-20.92,0-41.85.02-62.77,0-10.85.01-21.7.02-32.55,0-3.77.98-9.04-.02-12.66-1.3-4.68-1.49-2.99-5.45-4.72-14.26-6.23-28.89-17.89-35.9-32.62-13.71-28.78,19.46-62.26,48.36-59.67,7.44.66,13.84,4.44,21.13,5.47,8.72,1.23,15.61,2.93,22.33,9.04,11.97,10.87,15.56,28.3,7.92,42.7-4.83,9.1-13.27,15.25-20.65,22.14-3.26,3.03-6.45,6.34-10.17,8.81-2.97,1.97-7.96,2.64-9.94,5.66-3.77,5.75-.49,23.77-.48,30.71.01,10.73.02,21.45.02,32.18,8.68-7.64,17.19-15.42,25.7-23.24,3.4-3.13,9.05-6.42,11.09-10.58,2.27-4.65.14-10.56.66-15.6,2.14-20.83,26.05-35.58,40.19-48.61,15.06-13.88,35.97-24.02,54.47-8.63,16.52,13.74,12.66,37.31-.99,51.16-7.07,7.17-14.51,14.15-21.97,20.92-8.56,7.77-16.16,17.13-27.57,20.62-11.71,3.58-20.37,1.28-30.93-3.87-5.8-2.83-5.27-2.69-10.62,1.96-5.1,4.44-10.1,9.03-15.08,13.6-6.76,6.23-18.43,14.02-22.9,22.15-2.09,3.81-4.55,15.37.43,18.42,5.16,3.16,20.25-2.28,25.95-2.73,6.99-.55,30.03-4.9,34.6,2.76,8.16,13.69-19.43,11.29-24.44,11.42-7.61.19-33.67-.66-38.23,6.69-2.53,4.07-.43,15.81-.42,20.56.01,8.32.02,16.63.03,24.95,0,13.91-2.65,31.05.35,44.61,8.11-4,15.67-13.35,22.22-19.48,8.24-7.71,13.95-13.03,24.26-16.5,5.65-1.9,4.77-3.05,8.52-8.32,2.2-3.1,4.95-5.83,8.19-7.84,8.57-5.3,18.14-3.97,27.67-5.11,11.51-1.37,15.76-.84,25.4,5.04,8.71,5.31,18.53-6.13,29.37-4.36,7.1,1.16,21.18,8.83,14.98,17.43-3.25,4.51-7.12,4.1-11.32,2.28-5.62-2.44-5.87-5.08-12.79-3.29-8.81,2.28-15.83,9.56-25.12,4.56-3.45-1.86-5.73-7.12-9.2-8.29-4.52-1.53-14.24,2.47-19.44,2.67-6.98.27-20,2.63-16.07,12.87,4.2,10.96,17.07,7.24,25.6,9.21,6.84,1.58,7.54,3.53,13.94,0,4.37-2.41,7.34-6.34,12.6-7.13,11.11-1.66,18.12,9.46,28.67,3.78,9.52-5.13,18.99,1.85,10.72,11.24-5.37,6.1-14.8,7.65-22.43,5.97-9.27-2.03-12.11-5.81-21.04-.54-11.88,7.02-17.28,2.57-29.7.94-10.08-1.32-17.18.35-25.12-7.29-2.63-2.53-5.43-8.49-9.47-9.13-4.96-.79-10.74,6.48-13.95,9.3-9.54,8.39-18.79,17.08-28.1,25.73-3.68,3.41-7.59,5.98-8.78,10.97-1.64,6.83.05,16.14.07,23.2,0,5.82-3.37,27.51,1.55,31.45,2.62,2.1,31.51,2.11,34.21.02,2.92-2.25,1.94-8.98,2.86-12.33,1.28-4.69,3.59-8.86,6.75-12.55,3.27-3.82,6.72-5.28,10.72-7.97,3.7-2.49,6.16-6.81,10.12-8.74,10.7-5.2,14.61,4.5,8.75,12.28-5.81,7.73-16.95,10.46-20.27,19.65-7.22,20,19.93,26.07,33.91,18.88,5.15-2.65,14.01-12.68,17.83-1.95,3.55,9.98-11.4,16.08-18.41,18.24-22.12,6.82-36.67-9.85-57.48-9.8-5.92.01-25.45-3.3-29.67.95-2.54,2.56-.94,11.79-.93,14.81.01,6.73.02,13.46.03,20.19,0,13.46,0,26.92.01,40.37,0,2.37-1.69,10.77.93,11.82,2.26.91,11.75-10.19,12.85-11.23,9.35-8.78,14.3-15.1,27.46-15.2,5.89-.04,11.78-.05,17.68-.05,5.42,0,15.1,2.08,20.06-.11,6.28-2.76,7.99-13.44,13.61-18.12,8.57-7.14,18.54-6.38,29.11-6.37,12.6.01,25.2-.05,37.8-.01,10.3.03,23.19-2.05,32.71,2.8,14.22,7.24,19.65,26.58,12.05,40.34-11.46,20.75-36.73,15.23-56.4,15.13-12.26-.06-24.84,1.3-37.06.57-4.78-.28-9.53-1.13-13.82-3.34-6.37-3.27-7.81-8.93-12.84-13.1-6.75-5.59-22.61-2.41-31.09-2.42-5,0-11.82-1.23-16.55.6-5.76,2.22-10.52,8.48-14.89,12.58-6.45,6.05-19.39,14.24-21.52,22.98-2.9,11.9-.1,28.23-.1,40.48,0,13.1,0,26.2-.05,39.31-.01,3.76-1.67,10.28,1.6,12.95,2.88,2.35,13.85.42,17.57.42,25.94,0,51.89,0,77.83,0,12.97,0,25.94,0,38.92.02,7.06,0,26.46-2.87,23.9,9.67-2.15,10.54-19.53,7.1-27.12,7.11-14.02,0-28.04.01-42.07.02-26.49.01-52.97.02-79.46.03-54.53.02-109.06.04-163.59.05-7.18,0-21.38,2.89-24.18-6.32-3.95-12.98,15.22-10.57,22.21-10.57,27.19,0,54.38,0,81.57,0,13.21,0,26.41,0,39.62,0,8.81,0,15.18,2.83,16.11-6.56,2.49-25.16.19-52.14.11-77.45-.04-11.96-5.12-16.32-13.48-24.41-7.18-6.95-15.27-19.09-25.52-20.92-8.54-1.52-22.97,3.87-30.35-1.67-2.87-2.15-4.46-7.11-2.36-10.29,3.23-4.88,13.33-3.37,18.32-3.46,10.64-.2,22.56-2.43,30.58,4.9,2.69,2.45,19.85,22.13,21.85,21.21,2.94-1.36.86-19.96.86-23.03,0-10.71,0-21.42,0-32.13,0-19.89,0-39.78,0-59.66,0-9.18,0-18.36,0-27.54,0-4.57,2.61-19.81-.79-23.12-3.27-3.18-18.35-.3-22.46-.28-8.15.04-18.25-1.74-25.87,1.15-6.95,2.63-11.54,5.54-19.48,5.77-10.79.32-21.63,0-32.42,0-9.26,0-18.53,0-27.79,0-7.4,0-16.35,1.37-22.76-3.24-1.87-1.35-6.32-5.41-6.01-8.06.41-3.47,1.46-2.3,5.07-2.86,9.14-1.4,19.71.1,28.98.13,8.92.03,17.83.05,26.75.07,8.98.02,22.64,2.63,31.21.07,5.9-1.77,5.35-4.75-.22-6.27-9.31-2.55-22.93,0-32.56,0-9.3,0-18.61.01-27.91.02-7.65,0-19.26,2.31-26.53.04-3.33-1.04-5.27,1-4.87-4.33.21-2.85,3.85-5.58,6.01-6.95,6.89-4.4,15.58-3.25,23.34-3.25,20.14,0,40.42-.71,60.55.06,6.9.26,12.39,1.23,17.54,6.14,2.29,2.18,3.22,4.68,6.14,5.92,4.06,1.73,12.19.23,16.41.23,5.6,0,20.3,2.75,24.97-.13,4.57-2.83,3.56-11.81.94-16.43-3.69-6.5-11.12-11.66-16.19-17-6.22-6.56-12.78-12.72-19.07-19.21-9-9.27-18.01-23.29-31.58-23.75-9.72-.34-19.54.11-29.27.08-8.18-.02-22.88,2.9-30.3-.45-4.94-2.23-6.71-9.41-2.48-13.54,4.99-4.88,20.27-2.15,26.65-2.15,17.65,0,43.86-5.97,57.25,7.38,15.41,15.35,30.15,31.46,45.95,46.42Zm47.79-223.83c-.92-21.41-19.6-19.12-34.52-25.51-15.49-6.64-41.26,10.33-41.76,27.54-.29,10.02,7.58,15.05,13.61,21.7,6.27,6.91,11.99,13.13,22.25,13.08,9.9-.05,16.69-7.41,23.44-13.63,6.27-5.78,18.33-13.2,16.98-23.18Zm80.42,15.62c-9.92-1.34-16.91,6.93-23.42,13.07-7.67,7.23-15.43,14.36-23.12,21.58-5.71,5.37-10.69,10.26-11.12,18.5-.48,9.24,5.83,17.12,15.16,18.33,17.71,2.31,35.46-23.66,47.38-34.24,6.97-6.19,15.41-13.64,12.85-24.11-1.92-7.89-9.4-14.58-17.73-13.13Zm34.31,420.2c13.15,0,54.41,7.36,47.06-17.93-2.44-8.41-9.94-8.93-17.66-9.03-11.67-.14-23.38.52-35.06.42-13.17-.12-43.96-6.62-41.33,15.23.99,8.25,5.42,10.54,13.11,11.32,11.04,1.11,22.77,0,33.88,0Z"/>
      <path class="cls-2" d="m209.06,431.04c8.22-1.79,15.31-2.04,23.47-.11,10.19,2.42,10.83-4.48,18.98-9.74,4.84-3.12,13.57-3.89,12.69,4.54-.85,8.13-13.99,10.62-15.51,18.14-1.99,9.86,6.87,8.2,12.63,8.45,6.35.28,16.33,5.24,5.96,9.29-4.09,1.6-9.21-1.23-12.87.03-4.26,1.47-2.93,2.2-4.58,6.78-2.71,7.54-8.7,12.49-14.23,18-14.46,14.39-28.85,29.79-44.8,42.55-6.25,5-12.95,6.68-21.04,6.14-8.29-.54-11.51-4.74-18.82,1.09-4.23,3.37-11.49,13.02-17.45,5.55-5.66-7.1,6.75-12.7,10.14-17.16,2.55-3.35,4.41-10.23-.27-13.2-3.3-2.09-18.84,4.27-16.43-5.44,1.16-4.69,6.88-3.4,10.42-3.52,5.63-.18,5.03.45,7.4-4.63,4.22-9.06,7.07-14.84,14.61-21.97,15.44-14.62,30.68-33.58,49.13-44.39.18-.15.38-.29.58-.41Zm-7.31,66.35c-1.71-3.5-20.2-24.99-22.42-18.45-1.21,3.57,9.26,12.12,11.46,14.45,1.51,1.61,10.6,11.56,10.96,4Zm.96-40.48c-8.13,1.39,11.58,21.51,14.99,21.71,9.72.56-10.35-21.17-14.99-21.71Zm-23.02,58.28c-1.48-3-19.4-23.05-19.92-13.91-.25,4.37,19.52,21.44,19.92,13.91Zm35.82-68.47c-7.23,3.09,12.28,21.88,15.39,18.46,3.74-4.12-11.86-17.23-15.39-18.46Z"/>
      <path class="cls-2" d="m479.14,193.57c6.72-12.43,19.75-18.82,33.58-15.91,8.37,1.76,9.91,2.9,17.17-1.6,6.18-3.83,14.53-4.44,21.69-2.47,26.73,7.37,20.52,47.38-5.46,50.88-6.52.88-10.56-2.34-16.33-3.25-6.23-.98-12.37,5.11-19.74,5.51-8.13.44-13.62-2.31-20.9-4.13-4.8-1.21-3.7-.85-8.08,2.04-4.4,2.9-9.59,3.6-13.96,6.14-5.41,3.14-6.98,10.05-12.37,13.91-5.48,3.93-12.7,6.07-19.43,5.12-12.95-1.83-23.3-14.62-22.36-27.62,1.36-18.84,16.88-24.85,33.19-23.67,8.73.63,11.44-7.9,18.8-12.47,7.92-4.92,17.37-3.61,14.2,7.55-4.44,3.2-25.94,15.9-14.77,22.73,3.16,1.93,11.53-3.81,13.42-6.58,2.69-3.96,1.24-11.59,1.34-16.16Zm39.92,9.41c-.06-14.79-25.32-15.68-25.53-1.26-.19,13.44,25.59,16.02,25.53,1.26Zm24.05,7.09c15.19-.14,14.83-22.94.02-22.87-14.54.07-14.72,23.01-.02,22.87Zm-114.78,13.63c.01,13.15,19.31,15,22.24,2.67,3.66-15.42-22.25-19.67-22.24-2.67Z"/>
      <path class="cls-2" d="m97.13,364.57c0-3.24-1.02-17.51,6.87-13.02,4.02,2.28,2.62,13.26,2.48,16.58-.18,4.45-1.24,10.1,5.55,9.48,5.46-.49,6.84-7.76,10.02-11.46,3.89-4.53,9.35-5.28,9.17,1.73-.13,5.28-8.6,9.65-8.37,14.31.16,3.2,5.41,6.19,7.84,6.3,4.27.19,15.15-11.96,17.19-2.64,1.76,8-23.92,10.88-11.4,16.68,4.99,2.31,15.48-3.34,19.89.87,4.73,4.52.03,7.66-4.48,8.73-4.41,1.05-13.47-2.32-17.04.74-5.12,4.39,1.32,7.22,4.83,8.75,3.13,1.36,11.14,3.67,7.91,9.07-4.04,6.75-14.3-4.84-18.94-3.1-14.04,5.26,7.58,17.87,1.96,24.58-6.89,8.21-19.18-26.16-24.47-7.48-1.22,4.3,3.33,17.17-1.88,20.16-4.75,2.72-6.3-1.42-7.15-5.06-1.13-4.8,2.43-14.12-.44-18.2-3.76-5.33-8.77-.77-11.22,2.67-1.77,2.48-5.72,9.94-9.42,9.97-9.33.07-.57-11.62.93-14.23,2.69-4.7,4.78-6.91-.11-10.9-5.02-4.1-6.42.21-12.22,2.03-4.55,1.42-11.61,1.03-8.3-5.59,2.19-4.38,10.4-3.17,12.99-6.86,7.48-10.66-21.87-3.3-24.49-9.73-5.29-12.95,29.46-.14,25.01-11.19-1.9-4.71-14.23-4.23-14.46-10.5-.39-10.61,12.54-.22,15.38.35,22.26,4.5-8.11-23.83,4.97-25.48,6.76-.85,8.22,12.59,12.74,14.97,8.85,4.66,8.58-7.75,8.58-12.55.04,0,.07,0,.11,0Zm4.08,52.28c11.41.56,12.76-15.51,2.03-17.5-10.83-2-13.62,16.93-2.03,17.5Z"/>
      <path class="cls-2" d="m495.59,313.97c-1.02-8.61,3.82-16.44,10.95-20.94,7.38-4.66,18.22-1.68,24.1-7.59,2.95-2.96,4.1-7.46,7-10.6,3.66-3.95,8.11-4.54,12.11-7.71,6.54-5.17,7.12-12.68,16.03-15.6,5.37-1.76,5.48-1.08,9.1-4.78,2.59-2.65,4.57-7.01,9.31-4.62,9.09,4.58.66,17.07-5.31,20.03-3.29,1.63-7.27,1.66-10.25,4.01-3.29,2.58-3.59,6.05-6.01,9.14-2.47,3.15-6.09,3.87-9.35,5.78-4.88,2.87-6.53,6.04-9.47,10.76-5.62,9.04-11.66,10.45-21.61,11.45-8.06.8-17.74,8.82-9.65,17.04,6.75,6.85,15.86,2.32,20.04-4.29,5.28-8.35,10.15-15.86,19.28-20.69,3.47-1.83,7.95-2.45,10.91-5.03,3.12-2.7,4.52-7.44,7.12-10.68,7.98-9.95,17.44-9.58,28.95-7.18,5.42,1.13,14.12,6.57,6.55,12.72-7.99,6.49-17.27-5.52-25.08,4.32-3.29,4.14-5.14,8.64-9.53,11.97-3.96,3-8.67,4.07-12.88,6.54-9.72,5.69-11.12,16.5-18.96,23.66-15.79,14.41-43.34,4.31-43.35-17.73Z"/>
      <path class="cls-2" d="m113.21,295.7c-13.1,5.42-24.09,1.96-33.49-8.2-1.35,6.22-18.03,20.9-21.52,10.07-2.97-9.22,13.78-13.82,19.61-13.73-.83-2.6-1.66-5.18-2.53-7.87-4.5,4-26.9,12.89-28.26.58-1.15-10.42,22.91-8.11,27.48-5.13,2.2-11.28,5.5-20.92,16.98-25.6,10-4.08,16.25-.78,25.32,2.62,5.53,2.07,2.51,1.26,6.23-3.5,2.22-2.84,7.91-6.06,11.76-4.98,4.51,1.27,5.22,4.61,2.57,8.89-3.19,5.15-10.05,5.28-15.16,3.41,2.36,3.95,4.6,7.58,6.06,11.58l.09.12c.36,2.03.72,4.06,1.09,6.12,5.09-1.69,30.69-2.42,25.11,8.47-4.14,8.08-21.38,2.61-25.89-1.79-.99,2.53-1.93,4.93-2.95,7.52,6.77-2.11,26.8,9.32,17.67,16.05-6.4,4.71-18.98-6.61-20.68-12.08-2.26,2.84-4.6,5.31-7.82,6.63-.55.27-1.11.55-1.67.82Zm-6.83-25.28c-.65-5.61-9-5.1-9.36.34-.44,6.53,9.17,6.33,9.36-.34Z"/>
      <path class="cls-2" d="m186.13,146.78c8.52,7.78-1.92,14.35-7.26,20.13-6.07,6.59-10.01,14.07-7.16,23.19,6.11,19.62,28,21.16,41.4,8.62,6.8-6.37,9.56-15.49,16.23-21.76,7.04-6.61,14.66-10.53,19.16-19.49,1.17-2.33.65-5.15,3.48-6.24.29-.11,11.8-.13,11.79-.13,6.25,3.31-5.2,19.5-7.68,22.53-6.59,8.06-15.16,13.63-21.24,22.22-4.65,6.56-8.62,12.94-15.13,17.9-13.41,10.22-32.66,11.45-46.91,2.16-11.98-7.81-19.44-22.25-17.56-36.6,1.27-9.69,6.31-16.84,12.79-23.73,5.59-5.94,8.89-12.88,17.98-8.89l.12.1Z"/>
      <path class="cls-2" d="m428.77,406.01c7.72,0,13.3,1.26,20.46,2.49,4.75.81,2.74,2.08,6.48-2.44,1.99-2.4,3.33-5.43,3.31-8.57-.11-19.52-22.05-6.1-31.23-4.81-5.72.8-14.94,2.66-16.97-3.58-1.14-3.51.68-8.93,3.8-10.61,4.05-2.18,10.76.04,15.46-1.72,7.84-2.94,13.1-7.13,22.17-5.97,31.18,3.96,26.32,52.01-.85,59.15-9.47,2.49-8.88-4.33-16.08-7.69-6.16-2.88-13.6.81-20-.34-5.01-.9-10.24-4.94-7.89-10.83,3.02-7.55,15.14-4.68,21.32-4.68,0-.13,0-.25,0-.38Z"/>
      <path class="cls-2" d="m233.78,112c7.77-.77,26.85,6.98,21.24,15.64-6.67,10.3-16.05-1.14-24.33-1.04-6.05.08-22.78,10.15-23.19-3.42-.33-11.1,19.32-10.99,26.28-11.18Z"/>
      <path class="cls-2" d="m539.16,398.05c-17.9,1.17-16.87-27.27.34-27.11,17.54.16,17.85,26.99-.34,27.11Z"/>
      <path class="cls-2" d="m522.12,449.08c-16.82,1.01-16.91-24.66-.74-25.92,17.57-1.36,19.04,26.08.74,25.92Z"/>
      <path class="cls-2" d="m573.21,424.3c0,18.66-29.68,16.17-26.09-2.71,2.8-14.72,26.09-12.52,26.09,2.71Z"/>
      <path class="cls-2" d="m568.51,395.03c-.03-17.57,28.03-16.69,26.22.88-1.57,15.29-26.19,15.23-26.22-.88Z"/>
      <path class="cls-2" d="m585.8,372.08c-15.11-.17-12.74-23.66,2.35-21.35,13.61,2.08,11.24,21.51-2.35,21.35Z"/>
      <path class="cls-2" d="m224.05,384.02c0,14.24-21.37,14.92-21.44.28-.08-14.23,21.44-14.22,21.44-.28Z"/>
      <path class="cls-2" d="m555.57,344.72c13.47,0,13.57,19.11.76,20.38-14.38,1.42-15.29-20.38-.76-20.38Z"/>
      <path class="cls-2" d="m211.98,326.88c-13.17-.11-12.33-21.33.77-20.99,13.82.36,13.02,21.11-.77,20.99Z"/>
      <path class="cls-2" d="m257.39,147.91c-5.04.3-8.88-4.25-7.46-9.1,1.52-5.16,11.01-9.98,16.06-10.44,5.06-.45,10.32,3.5,8.32,9.24-1.7,4.89-12.34,9.9-16.93,10.29Z"/>
      <path class="cls-2" d="m240.22,382.48c.07-12.63,18.33-13.73,20.26-1.43,2.09,13.32-20.34,15.49-20.26,1.43Z"/>
      <path class="cls-2" d="m189.22,169.83c.38-13.5,27.81,9.61,24.9,16.73-4.54,11.13-24.75-10.97-24.9-16.73Z"/>
      <path class="cls-2" d="m264.29,304.94c-.06,11.07-16.6,12.66-18.61,1.64-2.36-12.95,18.68-15,18.61-1.64Z"/>
      <path class="cls-2" d="m510.47,413.95c-13.49,0-9.74-21.84,3.48-18.05,10.63,3.05,7.28,18.04-3.48,18.05Z"/>
      <path class="cls-2" d="m112.12,240.09c.06-7.68,15.59-24.84,18.1-11.89,1.87,9.68-18.2,26.91-18.1,11.89Z"/>
      <path class="cls-2" d="m95.47,230.87c-.16-4.12-.46-14.15,5.86-14.16,6.38,0,6.85,12.13,6.63,16.34-.27,5.11-1.25,10.35-7.53,9.43-6.38-.94-4.96-5.96-4.96-11.61Z"/>
      <path class="cls-2" d="m113.21,295.7c.56-.27,1.11-.55,1.67-.82,7.81-1.08,21.44,16.49,13.54,22.42-9.32,7-17.27-15.38-15.21-21.6Z"/>
      <path class="cls-2" d="m95.37,311.63c0-4.62-1.06-11.55,5.14-12.45,6.26-.91,6.98,5.27,7.22,10,.2,3.87-.29,15.34-5.43,16.7-6.41,1.7-7.09-10.88-6.93-14.25Z"/>
      <path class="cls-2" d="m475.24,473.32c-11.35-.03-11.54-18.67.21-18.68,12.37,0,11.81,18.71-.21,18.68Z"/>
      <path class="cls-2" d="m90.85,240.57c.45,5.3-5.04,6.14-8.56,4.34-4.37-2.24-9.04-10.62-9.06-15.4-.08-14.17,17.6,2.27,17.62,11.06Z"/>
      <path class="cls-2" d="m195.66,200.39c-4.79-1.73-24.02-18.3-13.59-22.53,6.41-2.6,28.36,20.38,13.59,22.53Z"/>
      <path class="cls-2" d="m538.31,453.69c.01-12.71,19.79-10.56,17.84,1.56-1.76,10.91-17.85,9.85-17.84-1.56Z"/>
      <path class="cls-2" d="m77.29,317.6c-9.32.61-.34-22.98,8.65-22.27,12,.94-1.01,21.39-8.65,22.27Z"/>
      <path class="cls-2" d="m436.16,543.15c.05-13.41,19.38-10.91,17.13,1.66-1.85,10.31-17.17,9.5-17.13-1.66Z"/>
      <path class="cls-2" d="m474.92,552c-12.43-.1-9.9-19.9,1.94-17.87,10.87,1.87,9.32,17.96-1.94,17.87Z"/>
      <path class="cls-2" d="m505.84,552c-12.55-.04-10.28-20.08,1.91-17.96,10.12,1.76,8.8,17.99-1.91,17.96Z"/>
      <path class="cls-2" d="m66.68,267.5c-11.33-.51-21.65-18.32-4.46-14.96,9.1,1.78,20.1,14.97,4.46,14.96Z"/>
      <path class="cls-2" d="m128.26,263.82c-1.59-9.53,20.31-17.44,22.6-8.48,1.96,7.68-18.54,17.82-22.51,8.6,0,0-.08-.12-.08-.12Z"/>
      <path class="cls-2" d="m216.59,147.44c.76-14.18,29.32,9.88,17.3,15.5-5.91,2.76-17.31-9.9-17.3-15.5Z"/>
      <path class="cls-2" d="m444.9,455.56c12.63-.14,9.3,19.35-1.82,17.32-10.06-1.84-8.7-17.2,1.82-17.32Z"/>
      <path class="cls-2" d="m198.15,112.96c10.33.07,11.19,14.58,1.29,16.19-11.3,1.84-14.16-16.28-1.29-16.19Z"/>
      <path class="cls-2" d="m186.01,146.68c-4.99-6.68-3.37-20.96,8.21-15.4,3.92,1.88,5.59,7.58,3.69,11.63-2.33,4.95-7.03,4.75-11.78,3.87,0,0-.12-.1-.12-.1Z"/>
      <path class="cls-2" d="m506.78,456.05c10.21-.11,10.32,15.48,1.04,16.76-10.69,1.48-13.4-16.64-1.04-16.76Z"/>
      <path class="cls-2" d="m210.54,147.82c-10.33.09-10.47-16.23-.6-16.83,10.14-.62,11.28,16.74.6,16.83Z"/>
      <path class="cls-2" d="m75.51,254.17c-7.56-.23-19.15-13.71-6.99-14.35,8.19-.43,18.41,14.69,6.99,14.35Z"/>
      <path class="cls-2" d="m534.94,405c10.13.04,9.39,14.37-.11,14.74-9.52.37-10.06-14.78.11-14.74Z"/>
      <path class="cls-2" d="m223.59,419.6c-.25-3.39-.51-9.77,2.7-12.14,5.03-3.71,7,1,7.43,5.32.31,3.17-.49,12.21-3.51,13.88-5.09,2.8-6.61-3.45-6.61-7.06Z"/>
      <path class="cls-2" d="m208.48,431.45c-6.89,1.55-11.3-12.42-7.62-16.75,7.42-8.75,10.79,11.55,8.2,16.34-.2.12-.39.26-.57.41Z"/>
      <path class="cls-2" d="m143.28,488.45c-9.74-.02-19.36-11.6-4.81-10.59,2.83.2,8.13,1.34,9.33,4.36,1.11,2.8-.94,7.16-4.52,6.23Z"/>
      <path class="cls-2" d="m190.35,320.93c.25,7.72-10.65,8.79-12.19,1.37-1.75-8.4,11.89-10.68,12.19-1.37Z"/>
      <path class="cls-2" d="m240.73,141.67c-.44,7.92-11.22,2.68-11.87-2.66-1.16-9.63,11.96-5.27,11.87,2.66Z"/>
      <path class="cls-2" d="m214.39,171.04c1.45-7.09,10.21-6.62,11.06.65,1.08,9.18-11.28,7.72-11.06-.65Z"/>
      <path class="cls-2" d="m209.86,157.82c-1.16,8.03-13.04,4.06-11.37-3.22,1.73-7.54,11.54-3.4,11.37,3.22Z"/>
      <path class="cls-2" d="m173.23,457.4c-7.07-.21-10.36-12.05-1.85-12.16,6.22-.08,9.35,11.66,1.85,12.16Z"/>
      <path class="cls-2" d="m151.53,464.79c.05-7.49,11.34-3.81,11.25,2.36-.12,8.44-11.06,5.02-11.25-2.36Z"/>
      <path class="cls-2" d="m184.87,429.42c5.66.16,10.6,10.7,4.17,13.15-6.98,2.66-12.64-13.4-4.17-13.15Z"/>
      <path class="cls-2" d="m178.96,375.6c.07-7.33,9.95-7.34,11.15-.6,1.53,8.6-11.23,8.94-11.15.6Z"/>
      <path class="cls-2" d="m314.2,110.14c-3.99.12-6.59-3.27-6.75-7.01-.23-5.28,4.21-7.7,7.93-10.71,6.32-5.1,17.69-20.56,26.01-21.06,12.61-.76,6.89,12.82,1.62,17.45-5.69,5-21.03,22.68-28.81,21.33Z"/>
      <path class="cls-2" d="m317.81,61.97c9.46-1.1,7.52,8.86,3.84,13.26-3.9,4.65-12.99,14.79-19.62,15.16-11.23.64-7.16-10.34-2.22-15.21,4.04-3.98,11.85-14,18-13.22Z"/>
      <path class="cls-2" d="m393.46,151.37c-1.18-6.28,17.71-20.95,22.6-24.14,7.37-4.8,15.69-.79,11.63,8.58-2.63,6.08-34.36,35.43-34.23,15.56Z"/>
      <path class="cls-2" d="m442.72,127.6c-7.61.31-22.58-19.46-9.88-21.2,7.44-1.02,22.91,19.72,9.88,21.2Z"/>
      <path class="cls-2" d="m471.28,510.11c-13.76,0-13.95-13.03.39-13.1,4.89-.02,11.79-.18,11.92,6.44.14,7.14-7.35,6.66-12.31,6.67Z"/>
      <path class="cls-2" d="m503.73,510.09c-14.07,0-14.44-13.09.2-13.08,4.98,0,11.14-.22,11.44,6.26.33,7.15-6.57,6.77-11.64,6.77,0,.02,0,.03,0,.05Z"/>
      <path class="cls-2" d="m442.27,510.68c-9.07-.21-9.01-14.59.15-14.29,9.59.31,9.43,14.52-.15,14.29Z"/>
    </g>
  </g>
  <g id="Layer_2" data-name="Layer 2">
    <g>
      <path class="cls-1" d="m113.65,573.75c-34.28-30.3-61.33-66.66-80.4-108.06C13.51,422.83,3.5,376.99,3.5,329.45c0-87.07,33.9-168.92,95.47-230.48C160.53,37.41,242.39,3.5,329.45,3.5s168.92,33.91,230.48,95.47c61.56,61.56,95.47,143.42,95.47,230.48,0,67.47-20.44,132.22-59.1,187.23-1.48,2.1-3,4.21-4.54,6.29l-22.52-16.63c1.41-1.9,2.8-3.84,4.15-5.76,35.33-50.27,54.01-109.45,54.01-171.13,0-79.59-30.99-154.41-87.27-210.68-56.28-56.28-131.1-87.27-210.68-87.27s-154.41,30.99-210.68,87.27C62.49,175.04,31.5,249.87,31.5,329.45c0,43.47,9.15,85.36,27.18,124.52,17.43,37.84,42.17,71.08,73.52,98.8l-18.54,20.98Z"/>
      <path class="cls-1" d="m535.98,563.25c12.17-30.76,23.28-72.5,23.75-104.14l26.08,48.68,51.18,20.73c-31.41,3.84-71.73,19.35-101,34.73Z"/>
    </g>
  </g>
</svg>