<?xml version="1.0" encoding="utf-8"?>
<!-- Generator: Adobe Illustrator 28.0.0, SVG Export Plug-In . SVG Version: 6.00 Build 0)  -->
<svg version="1.1" xmlns="http://www.w3.org/2000/svg" xmlns:xlink="http://www.w3.org/1999/xlink" x="0px" y="0px"
	 viewBox="0 0 100 100" style="enable-background:new 0 0 100 100;" xml:space="preserve">
<style type="text/css">
	svg{background-color: white;}
.st0{fill:none;stroke:#36489E;stroke-width:3.976;stroke-miterlimit:10;}
	.st1{fill:#36489E;}
</style>
<g id="Layer_1">
	<g>
		<path d="M47.4,46.8c0.5-0.9,0.1-2.7,0.1-3.7c0-1.7,0-3.3,0-5c0-3,0-5.9,0-8.9c0-1.5,0-3.1,0-4.6c0-0.5,0.1-1.3,0-1.8
			c-0.2-0.7-0.2-0.4-0.8-0.7c-2-0.9-4.1-2.5-5.1-4.6c-1.9-4.1,2.8-8.8,6.9-8.5c1.1,0.1,2,0.6,3,0.8c1.2,0.2,2.2,0.4,3.2,1.3
			c1.7,1.5,2.2,4,1.1,6.1c-0.7,1.3-1.9,2.2-2.9,3.1c-0.5,0.4-0.9,0.9-1.4,1.3c-0.4,0.3-1.1,0.4-1.4,0.8c-0.5,0.8-0.1,3.4-0.1,4.4
			c0,1.5,0,3,0,4.6c1.2-1.1,2.4-2.2,3.6-3.3c0.5-0.4,1.3-0.9,1.6-1.5c0.3-0.7,0-1.5,0.1-2.2c0.3-3,3.7-5.1,5.7-6.9
			c2.1-2,5.1-3.4,7.7-1.2c2.3,2,1.8,5.3-0.1,7.3c-1,1-2.1,2-3.1,3c-1.2,1.1-2.3,2.4-3.9,2.9c-1.7,0.5-2.9,0.2-4.4-0.5
			c-0.8-0.4-0.7-0.4-1.5,0.3c-0.7,0.6-1.4,1.3-2.1,1.9c-1,0.9-2.6,2-3.3,3.1c-0.3,0.5-0.6,2.2,0.1,2.6c0.7,0.4,2.9-0.3,3.7-0.4
			c1-0.1,4.3-0.7,4.9,0.4c1.2,1.9-2.8,1.6-3.5,1.6c-1.1,0-4.8-0.1-5.4,0.9c-0.4,0.6-0.1,2.2-0.1,2.9c0,1.2,0,2.4,0,3.5
			c0,2-0.4,4.4,0,6.3c1.2-0.6,2.2-1.9,3.2-2.8c1.2-1.1,2-1.9,3.4-2.3c0.8-0.3,0.7-0.4,1.2-1.2c0.3-0.4,0.7-0.8,1.2-1.1
			c1.2-0.8,2.6-0.6,3.9-0.7c1.6-0.2,2.2-0.1,3.6,0.7c1.2,0.8,2.6-0.9,4.2-0.6c1,0.2,3,1.3,2.1,2.5c-0.5,0.6-1,0.6-1.6,0.3
			c-0.8-0.3-0.8-0.7-1.8-0.5c-1.3,0.3-2.2,1.4-3.6,0.6c-0.5-0.3-0.8-1-1.3-1.2c-0.6-0.2-2,0.4-2.8,0.4c-1,0-2.8,0.4-2.3,1.8
			c0.6,1.6,2.4,1,3.6,1.3c1,0.2,1.1,0.5,2,0c0.6-0.3,1-0.9,1.8-1c1.6-0.2,2.6,1.3,4.1,0.5c1.4-0.7,2.7,0.3,1.5,1.6
			c-0.8,0.9-2.1,1.1-3.2,0.8c-1.3-0.3-1.7-0.8-3-0.1c-1.7,1-2.5,0.4-4.2,0.1c-1.4-0.2-2.4,0-3.6-1c-0.4-0.4-0.8-1.2-1.3-1.3
			c-0.7-0.1-1.5,0.9-2,1.3c-1.4,1.2-2.7,2.4-4,3.7c-0.5,0.5-1.1,0.8-1.2,1.6c-0.2,1,0,2.3,0,3.3c0,0.8-0.5,3.9,0.2,4.5
			c0.4,0.3,4.5,0.3,4.9,0c0.4-0.3,0.3-1.3,0.4-1.8c0.2-0.7,0.5-1.3,1-1.8c0.5-0.5,1-0.8,1.5-1.1c0.5-0.4,0.9-1,1.4-1.2
			c1.5-0.7,2.1,0.6,1.2,1.7c-0.8,1.1-2.4,1.5-2.9,2.8c-1,2.8,2.8,3.7,4.8,2.7c0.7-0.4,2-1.8,2.5-0.3c0.5,1.4-1.6,2.3-2.6,2.6
			c-3.1,1-5.2-1.4-8.2-1.4c-0.8,0-3.6-0.5-4.2,0.1c-0.4,0.4-0.1,1.7-0.1,2.1c0,1,0,1.9,0,2.9c0,1.9,0,3.8,0,5.7
			c0,0.3-0.2,1.5,0.1,1.7c0.3,0.1,1.7-1.4,1.8-1.6c1.3-1.2,2-2.1,3.9-2.2c0.8,0,1.7,0,2.5,0c0.8,0,2.1,0.3,2.8,0
			c0.9-0.4,1.1-1.9,1.9-2.6c1.2-1,2.6-0.9,4.1-0.9c1.8,0,3.6,0,5.4,0c1.5,0,3.3-0.3,4.6,0.4c2,1,2.8,3.8,1.7,5.7
			c-1.6,2.9-5.2,2.2-8,2.1c-1.7,0-3.5,0.2-5.3,0.1c-0.7,0-1.4-0.2-2-0.5c-0.9-0.5-1.1-1.3-1.8-1.9c-1-0.8-3.2-0.3-4.4-0.3
			c-0.7,0-1.7-0.2-2.4,0.1c-0.8,0.3-1.5,1.2-2.1,1.8c-0.9,0.9-2.8,2-3.1,3.3c-0.4,1.7,0,4,0,5.7c0,1.9,0,3.7,0,5.6
			c0,0.5-0.2,1.5,0.2,1.8c0.4,0.3,2,0.1,2.5,0.1c3.7,0,7.4,0,11.1,0c1.8,0,3.7,0,5.5,0c1,0,3.8-0.4,3.4,1.4c-0.3,1.5-2.8,1-3.9,1
			c-2,0-4,0-6,0c-3.8,0-7.5,0-11.3,0c-7.7,0-15.5,0-23.2,0c-1,0-3,0.4-3.4-0.9c-0.6-1.8,2.2-1.5,3.2-1.5c3.9,0,7.7,0,11.6,0
			c1.9,0,3.8,0,5.6,0c1.3,0,2.2,0.4,2.3-0.9c0.4-3.6,0-7.4,0-11c0-1.7-0.7-2.3-1.9-3.5c-1-1-2.2-2.7-3.6-3c-1.2-0.2-3.3,0.6-4.3-0.2
			c-0.4-0.3-0.6-1-0.3-1.5c0.5-0.7,1.9-0.5,2.6-0.5c1.5,0,3.2-0.3,4.3,0.7c0.4,0.3,2.8,3.1,3.1,3c0.4-0.2,0.1-2.8,0.1-3.3
			c0-1.5,0-3,0-4.6c0-2.8,0-5.6,0-8.5c0-1.3,0-2.6,0-3.9c0-0.6,0.4-2.8-0.1-3.3c-0.5-0.5-2.6,0-3.2,0c-1.2,0-2.6-0.2-3.7,0.2
			c-1,0.4-1.6,0.8-2.8,0.8c-1.5,0-3.1,0-4.6,0c-1.3,0-2.6,0-3.9,0c-1.1,0-2.3,0.2-3.2-0.5c-0.3-0.2-0.9-0.8-0.9-1.1
			c0.1-0.5,0.2-0.3,0.7-0.4c1.3-0.2,2.8,0,4.1,0c1.3,0,2.5,0,3.8,0c1.3,0,3.2,0.4,4.4,0c0.8-0.3,0.8-0.7,0-0.9c-1.3-0.4-3.3,0-4.6,0
			c-1.3,0-2.6,0-4,0c-1.1,0-2.7,0.3-3.8,0c-0.5-0.1-0.7,0.1-0.7-0.6c0-0.4,0.5-0.8,0.9-1c1-0.6,2.2-0.5,3.3-0.5c2.9,0,5.7-0.1,8.6,0
			c1,0,1.8,0.2,2.5,0.9c0.3,0.3,0.5,0.7,0.9,0.8c0.6,0.2,1.7,0,2.3,0c0.8,0,2.9,0.4,3.5,0c0.6-0.4,0.5-1.7,0.1-2.3
			c-0.5-0.9-1.6-1.7-2.3-2.4c-0.9-0.9-1.8-1.8-2.7-2.7c-1.3-1.3-2.6-3.3-4.5-3.4c-1.4,0-2.8,0-4.2,0c-1.2,0-3.2,0.4-4.3-0.1
			c-0.7-0.3-1-1.3-0.4-1.9c0.7-0.7,2.9-0.3,3.8-0.3c2.5,0,6.2-0.8,8.1,1C43,42.4,45.1,44.7,47.4,46.8z M54.2,15
			c-0.1-3-2.8-2.7-4.9-3.6c-2.2-0.9-5.9,1.5-5.9,3.9c0,1.4,1.1,2.1,1.9,3.1c0.9,1,1.7,1.9,3.2,1.9c1.4,0,2.4-1.1,3.3-1.9
			C52.6,17.5,54.4,16.4,54.2,15z M65.6,17.2c-1.4-0.2-2.4,1-3.3,1.9c-1.1,1-2.2,2-3.3,3.1c-0.8,0.8-1.5,1.5-1.6,2.6
			c-0.1,1.3,0.8,2.4,2.2,2.6c2.5,0.3,5-3.4,6.7-4.9c1-0.9,2.2-1.9,1.8-3.4C67.8,18,66.8,17,65.6,17.2z M70.5,76.9
			c1.9,0,7.7,1,6.7-2.5c-0.3-1.2-1.4-1.3-2.5-1.3c-1.7,0-3.3,0.1-5,0.1c-1.9,0-6.2-0.9-5.9,2.2c0.1,1.2,0.8,1.5,1.9,1.6
			C67.2,77.1,68.9,76.9,70.5,76.9z"/>
		<path d="M32.7,64.7c1.2-0.3,2.2-0.3,3.3,0c1.4,0.3,1.5-0.6,2.7-1.4c0.7-0.4,1.9-0.6,1.8,0.6c-0.1,1.2-2,1.5-2.2,2.6
			c-0.3,1.4,1,1.2,1.8,1.2c0.9,0,2.3,0.7,0.8,1.3c-0.6,0.2-1.3-0.2-1.8,0c-0.6,0.2-0.4,0.3-0.6,1c-0.4,1.1-1.2,1.8-2,2.6
			c-2.1,2-4.1,4.2-6.4,6c-0.9,0.7-1.8,0.9-3,0.9c-1.2-0.1-1.6-0.7-2.7,0.2c-0.6,0.5-1.6,1.8-2.5,0.8c-0.8-1,1-1.8,1.4-2.4
			c0.4-0.5,0.6-1.5,0-1.9c-0.5-0.3-2.7,0.6-2.3-0.8c0.2-0.7,1-0.5,1.5-0.5c0.8,0,0.7,0.1,1.1-0.7c0.6-1.3,1-2.1,2.1-3.1
			C27.9,69,30,66.3,32.7,64.7C32.7,64.7,32.7,64.7,32.7,64.7z M31.7,74.1c-0.2-0.5-2.9-3.5-3.2-2.6c-0.2,0.5,1.3,1.7,1.6,2.1
			C30.3,73.8,31.6,75.2,31.7,74.1z M31.8,68.3c-1.2,0.2,1.6,3.1,2.1,3.1C35.3,71.5,32.5,68.4,31.8,68.3z M28.6,76.6
			c-0.2-0.4-2.8-3.3-2.8-2C25.7,75.3,28.5,77.7,28.6,76.6z M33.6,66.9c-1,0.4,1.7,3.1,2.2,2.6C36.4,68.9,34.1,67.1,33.6,66.9z"/>
		<path d="M71.1,30.9c1-1.8,2.8-2.7,4.8-2.3c1.2,0.2,1.4,0.4,2.4-0.2c0.9-0.5,2.1-0.6,3.1-0.4c3.8,1,2.9,6.7-0.8,7.2
			c-0.9,0.1-1.5-0.3-2.3-0.5c-0.9-0.1-1.8,0.7-2.8,0.8c-1.2,0.1-1.9-0.3-3-0.6c-0.7-0.2-0.5-0.1-1.1,0.3c-0.6,0.4-1.4,0.5-2,0.9
			c-0.8,0.4-1,1.4-1.8,2c-0.8,0.6-1.8,0.9-2.8,0.7c-1.8-0.3-3.3-2.1-3.2-3.9c0.2-2.7,2.4-3.5,4.7-3.4c1.2,0.1,1.6-1.1,2.7-1.8
			C70.2,29.2,71.5,29.4,71.1,30.9c-0.6,0.5-3.7,2.3-2.1,3.2c0.4,0.3,1.6-0.5,1.9-0.9C71.3,32.7,71.1,31.6,71.1,30.9z M76.7,32.3
			c0-2.1-3.6-2.2-3.6-0.2C73.1,34,76.8,34.4,76.7,32.3z M80.2,33.3c2.2,0,2.1-3.3,0-3.2C78.1,30.1,78.1,33.3,80.2,33.3z M63.9,35.2
			c0,1.9,2.7,2.1,3.2,0.4C67.5,33.4,63.9,32.8,63.9,35.2z"/>
		<path d="M16.8,55.2c0-0.5-0.1-2.5,1-1.8c0.6,0.3,0.4,1.9,0.4,2.4c0,0.6-0.2,1.4,0.8,1.3c0.8-0.1,1-1.1,1.4-1.6
			c0.6-0.6,1.3-0.7,1.3,0.2c0,0.7-1.2,1.4-1.2,2c0,0.5,0.8,0.9,1.1,0.9c0.6,0,2.2-1.7,2.4-0.4c0.2,1.1-3.4,1.5-1.6,2.4
			c0.7,0.3,2.2-0.5,2.8,0.1c0.7,0.6,0,1.1-0.6,1.2c-0.6,0.1-1.9-0.3-2.4,0.1c-0.7,0.6,0.2,1,0.7,1.2c0.4,0.2,1.6,0.5,1.1,1.3
			c-0.6,1-2-0.7-2.7-0.4c-2,0.7,1.1,2.5,0.3,3.5c-1,1.2-2.7-3.7-3.5-1.1c-0.2,0.6,0.5,2.4-0.3,2.9c-0.7,0.4-0.9-0.2-1-0.7
			c-0.2-0.7,0.3-2-0.1-2.6c-0.5-0.8-1.2-0.1-1.6,0.4c-0.3,0.4-0.8,1.4-1.3,1.4c-1.3,0-0.1-1.6,0.1-2c0.4-0.7,0.7-1,0-1.5
			c-0.7-0.6-0.9,0-1.7,0.3c-0.6,0.2-1.6,0.1-1.2-0.8c0.3-0.6,1.5-0.5,1.8-1c1.1-1.5-3.1-0.5-3.5-1.4c-0.8-1.8,4.2,0,3.6-1.6
			c-0.3-0.7-2-0.6-2.1-1.5c-0.1-1.5,1.8,0,2.2,0.1c3.2,0.6-1.2-3.4,0.7-3.6c1-0.1,1.2,1.8,1.8,2.1C16.9,57.7,16.8,55.9,16.8,55.2
			C16.8,55.2,16.8,55.2,16.8,55.2z M17.4,62.7c1.6,0.1,1.8-2.2,0.3-2.5C16.2,59.9,15.8,62.6,17.4,62.7z"/>
		<path d="M73.4,48c-0.1-1.2,0.5-2.3,1.6-3c1-0.7,2.6-0.2,3.4-1.1c0.4-0.4,0.6-1.1,1-1.5c0.5-0.6,1.2-0.6,1.7-1.1
			c0.9-0.7,1-1.8,2.3-2.2c0.8-0.2,0.8-0.2,1.3-0.7c0.4-0.4,0.6-1,1.3-0.7c1.3,0.7,0.1,2.4-0.8,2.8c-0.5,0.2-1,0.2-1.5,0.6
			c-0.5,0.4-0.5,0.9-0.9,1.3c-0.4,0.4-0.9,0.5-1.3,0.8c-0.7,0.4-0.9,0.9-1.3,1.5c-0.8,1.3-1.7,1.5-3.1,1.6c-1.1,0.1-2.5,1.3-1.4,2.4
			c1,1,2.3,0.3,2.8-0.6c0.7-1.2,1.4-2.3,2.7-2.9c0.5-0.3,1.1-0.3,1.5-0.7c0.4-0.4,0.6-1.1,1-1.5c1.1-1.4,2.5-1.4,4.1-1
			c0.8,0.2,2,0.9,0.9,1.8c-1.1,0.9-2.5-0.8-3.6,0.6c-0.5,0.6-0.7,1.2-1.4,1.7c-0.6,0.4-1.2,0.6-1.8,0.9c-1.4,0.8-1.6,2.3-2.7,3.4
			C77.3,52.6,73.4,51.2,73.4,48z"/>
		<path d="M19.1,45.4c-1.9,0.8-3.4,0.3-4.8-1.2c-0.2,0.9-2.6,3-3.1,1.4c-0.4-1.3,2-2,2.8-2c-0.1-0.4-0.2-0.7-0.4-1.1
			c-0.6,0.6-3.8,1.8-4,0.1c-0.2-1.5,3.3-1.2,3.9-0.7c0.3-1.6,0.8-3,2.4-3.6c1.4-0.6,2.3-0.1,3.6,0.4c0.8,0.3,0.4,0.2,0.9-0.5
			c0.3-0.4,1.1-0.9,1.7-0.7c0.6,0.2,0.7,0.7,0.4,1.3c-0.5,0.7-1.4,0.8-2.2,0.5c0.3,0.6,0.7,1.1,0.9,1.6l0,0c0.1,0.3,0.1,0.6,0.2,0.9
			c0.7-0.2,4.4-0.3,3.6,1.2c-0.6,1.1-3,0.4-3.7-0.3c-0.1,0.4-0.3,0.7-0.4,1.1c1-0.3,3.8,1.3,2.5,2.3c-0.9,0.7-2.7-0.9-2.9-1.7
			c-0.3,0.4-0.7,0.8-1.1,0.9C19.3,45.4,19.2,45.4,19.1,45.4z M18.1,41.9c-0.1-0.8-1.3-0.7-1.3,0C16.8,42.8,18.1,42.8,18.1,41.9z"/>
		<path d="M29.5,24.3c1.2,1.1-0.3,2-1,2.9c-0.9,0.9-1.4,2-1,3.3c0.9,2.8,4,3,5.9,1.2c1-0.9,1.4-2.2,2.3-3.1c1-0.9,2.1-1.5,2.7-2.8
			c0.2-0.3,0.1-0.7,0.5-0.9c0,0,1.7,0,1.7,0c0.9,0.5-0.7,2.8-1.1,3.2c-0.9,1.1-2.2,1.9-3,3.2c-0.7,0.9-1.2,1.8-2.1,2.5
			c-1.9,1.5-4.6,1.6-6.7,0.3c-1.7-1.1-2.8-3.2-2.5-5.2c0.2-1.4,0.9-2.4,1.8-3.4C27.7,24.7,28.2,23.7,29.5,24.3L29.5,24.3z"/>
		<path d="M63.9,61.1c1.1,0,1.9,0.2,2.9,0.4c0.7,0.1,0.4,0.3,0.9-0.3c0.3-0.3,0.5-0.8,0.5-1.2c0-2.8-3.1-0.9-4.4-0.7
			c-0.8,0.1-2.1,0.4-2.4-0.5c-0.2-0.5,0.1-1.3,0.5-1.5c0.6-0.3,1.5,0,2.2-0.2c1.1-0.4,1.9-1,3.1-0.8c4.4,0.6,3.7,7.4-0.1,8.4
			c-1.3,0.4-1.3-0.6-2.3-1.1c-0.9-0.4-1.9,0.1-2.8,0c-0.7-0.1-1.5-0.7-1.1-1.5C61.3,60.8,63,61.2,63.9,61.1
			C63.9,61.2,63.9,61.1,63.9,61.1z"/>
		<path d="M36.2,19.4c1.1-0.1,3.8,1,3,2.2c-0.9,1.5-2.3-0.2-3.5-0.1c-0.9,0-3.2,1.4-3.3-0.5C32.5,19.4,35.3,19.4,36.2,19.4z"/>
		<path d="M79.6,60c-2.5,0.2-2.4-3.9,0-3.8C82.1,56.2,82.2,60,79.6,60z"/>
		<path d="M77.2,67.2c-2.4,0.1-2.4-3.5-0.1-3.7C79.6,63.4,79.8,67.3,77.2,67.2z"/>
		<path d="M84.4,63.7c0,2.6-4.2,2.3-3.7-0.4C81.1,61.2,84.4,61.5,84.4,63.7z"/>
		<path d="M83.8,59.6c0-2.5,4-2.4,3.7,0.1C87.3,61.9,83.8,61.8,83.8,59.6z"/>
		<path d="M86.2,56.3c-2.1,0-1.8-3.4,0.3-3C88.5,53.6,88.2,56.3,86.2,56.3z"/>
		<path d="M34.9,58c0,2-3,2.1-3,0C31.8,56,34.9,56,34.9,58z"/>
		<path d="M81.9,52.4c1.9,0,1.9,2.7,0.1,2.9C80,55.5,79.9,52.4,81.9,52.4z"/>
		<path d="M33.1,49.9c-1.9,0-1.8-3,0.1-3C35.2,46.9,35.1,49.9,33.1,49.9z"/>
		<path d="M39.6,24.5c-0.7,0-1.3-0.6-1.1-1.3c0.2-0.7,1.6-1.4,2.3-1.5c0.7-0.1,1.5,0.5,1.2,1.3C41.8,23.7,40.2,24.4,39.6,24.5z"/>
		<path d="M37.2,57.8c0-1.8,2.6-2,2.9-0.2C40.3,59.5,37.1,59.8,37.2,57.8z"/>
		<path d="M29.9,27.6c0.1-1.9,3.9,1.4,3.5,2.4C32.8,31.5,29.9,28.4,29.9,27.6z"/>
		<path d="M40.6,46.8c0,1.6-2.4,1.8-2.6,0.2C37.6,45.2,40.6,44.9,40.6,46.8z"/>
		<path d="M75.5,62.2c-1.9,0-1.4-3.1,0.5-2.6C77.5,60.1,77.1,62.2,75.5,62.2z"/>
		<path d="M19,37.6c0-1.1,2.2-3.5,2.6-1.7C21.8,37.2,18.9,39.7,19,37.6z"/>
		<path d="M16.6,36.2c0-0.6-0.1-2,0.8-2c0.9,0,1,1.7,0.9,2.3c0,0.7-0.2,1.5-1.1,1.3C16.4,37.8,16.6,37,16.6,36.2z"/>
		<path d="M19.1,45.4c0.1,0,0.2-0.1,0.2-0.1c1.1-0.2,3,2.3,1.9,3.2C20,49.5,18.8,46.3,19.1,45.4z"/>
		<path d="M16.6,47.7c0-0.7-0.2-1.6,0.7-1.8c0.9-0.1,1,0.7,1,1.4c0,0.5,0,2.2-0.8,2.4C16.7,50,16.6,48.2,16.6,47.7z"/>
		<path d="M70.5,70.7c-1.6,0-1.6-2.7,0-2.7C72.3,68,72.2,70.7,70.5,70.7z"/>
		<path d="M15.9,37.6c0.1,0.8-0.7,0.9-1.2,0.6c-0.6-0.3-1.3-1.5-1.3-2.2C13.4,34,15.9,36.4,15.9,37.6z"/>
		<path d="M30.8,31.9c-0.7-0.2-3.4-2.6-1.9-3.2C29.8,28.3,32.9,31.6,30.8,31.9z"/>
		<path d="M79.5,67.9c0-1.8,2.8-1.5,2.5,0.2C81.8,69.7,79.5,69.5,79.5,67.9z"/>
		<path d="M14,48.6c-1.3,0.1,0-3.3,1.2-3.2C16.9,45.5,15.1,48.4,14,48.6z"/>
		<path d="M65,80.6c0-1.9,2.8-1.5,2.4,0.2C67.1,82.3,65,82.2,65,80.6z"/>
		<path d="M70.5,81.8c-1.8,0-1.4-2.8,0.3-2.5C72.3,79.6,72.1,81.9,70.5,81.8z"/>
		<path d="M74.9,81.8c-1.8,0-1.5-2.9,0.3-2.6C76.6,79.5,76.4,81.8,74.9,81.8z"/>
		<path d="M12.5,41.4c-1.6-0.1-3.1-2.6-0.6-2.1C13.2,39.6,14.7,41.4,12.5,41.4z"/>
		<path d="M21.3,40.9c-0.2-1.4,2.9-2.5,3.2-1.2C24.7,40.8,21.8,42.3,21.3,40.9C21.3,40.9,21.3,40.9,21.3,40.9z"/>
		<path d="M33.8,24.4c0.1-2,4.2,1.4,2.5,2.2C35.4,27,33.8,25.2,33.8,24.4z"/>
		<path d="M66.2,68.2c1.8,0,1.3,2.7-0.3,2.5C64.5,70.3,64.7,68.2,66.2,68.2z"/>
		<path d="M31.2,19.5c1.5,0,1.6,2.1,0.2,2.3C29.8,22.1,29.4,19.5,31.2,19.5z"/>
		<path d="M29.5,24.3c-0.7-0.9-0.5-3,1.2-2.2c0.6,0.3,0.8,1.1,0.5,1.7C30.8,24.5,30.1,24.4,29.5,24.3C29.5,24.3,29.5,24.3,29.5,24.3
			z"/>
		<path d="M75,68.2c1.5,0,1.5,2.2,0.1,2.4C73.6,70.8,73.2,68.2,75,68.2z"/>
		<path d="M32.9,24.5c-1.5,0-1.5-2.3-0.1-2.4C34.3,22,34.5,24.4,32.9,24.5z"/>
		<path d="M13.8,39.6c-1.1,0-2.7-1.9-1-2C13.9,37.5,15.4,39.6,13.8,39.6z"/>
		<path d="M79,61c1.4,0,1.3,2,0,2.1C77.6,63.1,77.6,61,79,61z"/>
		<path d="M34.8,63c0-0.5-0.1-1.4,0.4-1.7c0.7-0.5,1,0.1,1.1,0.8c0,0.5-0.1,1.7-0.5,2C35,64.4,34.8,63.6,34.8,63z"/>
		<path d="M32.6,64.7c-1,0.2-1.6-1.8-1.1-2.4C32.6,61.1,33.1,64,32.6,64.7C32.7,64.7,32.7,64.7,32.6,64.7z"/>
		<path d="M23.4,72.8c-1.4,0-2.7-1.6-0.7-1.5c0.4,0,1.2,0.2,1.3,0.6C24.2,72.3,23.9,73,23.4,72.8z"/>
		<path d="M30.1,49c0,1.1-1.5,1.2-1.7,0.2C28.1,48,30,47.7,30.1,49z"/>
		<path d="M37.2,23.6c-0.1,1.1-1.6,0.4-1.7-0.4C35.4,21.8,37.2,22.5,37.2,23.6z"/>
		<path d="M33.5,27.7c0.2-1,1.4-0.9,1.6,0.1C35.2,29.1,33.5,28.9,33.5,27.7z"/>
		<path d="M32.8,25.9c-0.2,1.1-1.9,0.6-1.6-0.5C31.5,24.3,32.9,24.9,32.8,25.9z"/>
		<path d="M27.6,68.4c-1,0-1.5-1.7-0.3-1.7C28.3,66.7,28.7,68.3,27.6,68.4z"/>
		<path d="M24.6,69.5c0-1.1,1.6-0.5,1.6,0.3C26.1,71,24.6,70.5,24.6,69.5z"/>
		<path d="M29.3,64.4c0.8,0,1.5,1.5,0.6,1.9C28.9,66.7,28.1,64.4,29.3,64.4z"/>
		<path d="M28.5,56.8c0-1,1.4-1,1.6-0.1C30.3,57.9,28.4,58,28.5,56.8z"/>
		<path d="M47.7,19.1c-0.6,0-0.9-0.5-1-1c0-0.7,0.6-1.1,1.1-1.5c0.9-0.7,2.5-2.9,3.7-3c1.8-0.1,1,1.8,0.2,2.5
			C50.9,16.8,48.8,19.3,47.7,19.1z"/>
		<path d="M48.2,12.3c1.3-0.2,1.1,1.3,0.5,1.9c-0.6,0.7-1.8,2.1-2.8,2.2c-1.6,0.1-1-1.5-0.3-2.2C46.2,13.6,47.3,12.1,48.2,12.3z"/>
		<path d="M58.9,25c-0.2-0.9,2.5-3,3.2-3.4c1-0.7,2.2-0.1,1.7,1.2C63.4,23.6,58.9,27.8,58.9,25z"/>
		<path d="M65.9,21.6c-1.1,0-3.2-2.8-1.4-3C65.6,18.4,67.8,21.4,65.9,21.6z"/>
		<path d="M70,75.9c-2,0-2-1.9,0.1-1.9c0.7,0,1.7,0,1.7,0.9C71.7,76,70.7,75.9,70,75.9z"/>
		<path d="M74.6,75.9c-2,0-2-1.9,0-1.9c0.7,0,1.6,0,1.6,0.9C76.3,75.9,75.3,75.9,74.6,75.9C74.6,75.9,74.6,75.9,74.6,75.9z"/>
		<path d="M65.8,76c-1.3,0-1.3-2.1,0-2C67.2,74,67.2,76,65.8,76z"/>
	</g>
</g>
<g id="Layer_2">
	<g>
		<g>
			<path class="st0" d="M20.5,83.4c-9.2-8.1-15-20-15-33.2c0-24.5,19.8-44.3,44.3-44.3s44.3,19.8,44.3,44.3c0,9.5-3,18.2-8,25.4
				c-0.2,0.3-0.4,0.6-0.6,0.9"/>
			<g>
				<path class="st1" d="M79.2,83.4c1.7-4.4,3.3-10.3,3.4-14.8l3.7,6.9l7.3,2.9C89,79.1,83.3,81.3,79.2,83.4z"/>
			</g>
		</g>
	</g>
</g>
</svg>
